<?xml version="1.0" encoding="UTF-8" standalone="no"?><!DOCTYPE svg PUBLIC "-//W3C//DTD SVG 1.1//EN" "http://www.w3.org/Graphics/SVG/1.1/DTD/svg11.dtd"><!-- Generated by graphviz version 2.40.1 (20161225.0304)
 --><!-- Title: G Pages: 1 --><svg xmlns="http://www.w3.org/2000/svg" xmlns:xlink="http://www.w3.org/1999/xlink" width="214pt" height="697pt" viewBox="0.00 0.00 214.00 696.80">
<g id="graph0" class="graph" transform="scale(1 1) rotate(0) translate(4 692.8)">
<title>G</title>
<polygon fill="#ffffff" stroke="transparent" points="-4,4 -4,-692.8 210,-692.8 210,4 -4,4"/>
<g id="clust1" class="cluster">
<title>cluster_0</title>
<polygon fill="#d3d3d3" stroke="#d3d3d3" points="8,-64 8,-644.8 198,-644.8 198,-64 8,-64"/>
<text text-anchor="middle" x="103" y="-628.2" font-family="Times,serif" font-size="14.00" fill="#000000">unitPropagation</text>
</g>
<!-- unitProp -->
<g id="node1" class="node">
<title>unitProp</title>
<ellipse fill="#ffffff" stroke="#ffffff" cx="123" cy="-594" rx="44.1025" ry="18"/>
<text text-anchor="middle" x="123" y="-589.8" font-family="Times,serif" font-size="14.00" fill="#000000">unitProp</text>
</g>
<!-- getUnitClause -->
<g id="node2" class="node">
<title>getUnitClause</title>
<ellipse fill="#ffffff" stroke="#ffffff" cx="101" cy="-522" rx="66.0685" ry="18"/>
<text text-anchor="middle" x="101" y="-517.8" font-family="Times,serif" font-size="14.00" fill="#000000">getUnitClause</text>
</g>
<!-- unitProp&#45;&gt;getUnitClause -->
<g id="edge1" class="edge">
<title>unitProp-&gt;getUnitClause</title>
<path fill="none" stroke="#000000" d="M117.4485,-575.8314C115.0697,-568.0463 112.2362,-558.7729 109.5967,-550.1347"/>
<polygon fill="#000000" stroke="#000000" points="112.8958,-548.954 106.6263,-540.4133 106.2013,-550.9996 112.8958,-548.954"/>
</g>
<!-- setVariable -->
<g id="node3" class="node">
<title>setVariable</title>
<ellipse fill="#ffffff" stroke="#ffffff" cx="96" cy="-450" rx="55.0092" ry="18"/>
<text text-anchor="middle" x="96" y="-445.8" font-family="Times,serif" font-size="14.00" fill="#000000">setVariable</text>
</g>
<!-- getUnitClause&#45;&gt;setVariable -->
<g id="edge2" class="edge">
<title>getUnitClause-&gt;setVariable</title>
<path fill="none" stroke="#000000" d="M99.7383,-503.8314C99.2035,-496.131 98.5677,-486.9743 97.9734,-478.4166"/>
<polygon fill="#000000" stroke="#000000" points="101.4632,-478.1467 97.2787,-468.4133 94.48,-478.6317 101.4632,-478.1467"/>
</g>
<!-- unitSubsumption -->
<g id="node4" class="node">
<title>unitSubsumption</title>
<ellipse fill="#ffffff" stroke="#ffffff" cx="93" cy="-378" rx="77.0699" ry="18"/>
<text text-anchor="middle" x="93" y="-373.8" font-family="Times,serif" font-size="14.00" fill="#000000">unitSubsumption</text>
</g>
<!-- setVariable&#45;&gt;unitSubsumption -->
<g id="edge3" class="edge">
<title>setVariable-&gt;unitSubsumption</title>
<path fill="none" stroke="#000000" d="M95.243,-431.8314C94.9221,-424.131 94.5406,-414.9743 94.184,-406.4166"/>
<polygon fill="#000000" stroke="#000000" points="97.6806,-406.2589 93.7672,-396.4133 90.6867,-406.5503 97.6806,-406.2589"/>
</g>
<!-- unitResolution -->
<g id="node5" class="node">
<title>unitResolution</title>
<ellipse fill="#ffffff" stroke="#ffffff" cx="97" cy="-306" rx="67.8165" ry="18"/>
<text text-anchor="middle" x="97" y="-301.8" font-family="Times,serif" font-size="14.00" fill="#000000">unitResolution</text>
</g>
<!-- unitSubsumption&#45;&gt;unitResolution -->
<g id="edge4" class="edge">
<title>unitSubsumption-&gt;unitResolution</title>
<path fill="none" stroke="#000000" d="M94.0094,-359.8314C94.4372,-352.131 94.9459,-342.9743 95.4213,-334.4166"/>
<polygon fill="#000000" stroke="#000000" points="98.9169,-334.592 95.977,-324.4133 91.9276,-334.2037 98.9169,-334.592"/>
</g>
<!-- checkSetVariable -->
<g id="node6" class="node">
<title>checkSetVariable</title>
<ellipse fill="#ffffff" stroke="#ffffff" cx="103" cy="-234" rx="79.269" ry="18"/>
<text text-anchor="middle" x="103" y="-229.8" font-family="Times,serif" font-size="14.00" fill="#000000">checkSetVariable</text>
</g>
<!-- unitResolution&#45;&gt;checkSetVariable -->
<g id="edge5" class="edge">
<title>unitResolution-&gt;checkSetVariable</title>
<path fill="none" stroke="#000000" d="M98.5141,-287.8314C99.1558,-280.131 99.9188,-270.9743 100.6319,-262.4166"/>
<polygon fill="#000000" stroke="#000000" points="104.1229,-262.6694 101.4656,-252.4133 97.1471,-262.088 104.1229,-262.6694"/>
</g>
<!-- checkSetVariable&#45;&gt;unitProp -->
<g id="edge6" class="edge">
<title>checkSetVariable-&gt;unitProp</title>
<path fill="none" stroke="#000000" d="M134.7864,-250.7504C149.0052,-259.8731 164.6399,-272.4857 174,-288 194.9485,-322.7218 189,-337.4482 189,-378 189,-450 189,-450 189,-450 189,-490.4151 193.9333,-503.7815 176,-540 170.2167,-551.6801 160.955,-562.4179 151.78,-571.1893"/>
<polygon fill="#000000" stroke="#000000" points="149.2392,-568.7681 144.1715,-578.0724 153.9353,-573.9591 149.2392,-568.7681"/>
</g>
<!-- interpret -->
<g id="node7" class="node">
<title>interpret</title>
<ellipse fill="#ffffff" stroke="#ffffff" cx="103" cy="-162" rx="43.9964" ry="18"/>
<text text-anchor="middle" x="103" y="-157.8" font-family="Times,serif" font-size="14.00" fill="#000000">interpret</text>
</g>
<!-- checkSetVariable&#45;&gt;interpret -->
<g id="edge7" class="edge">
<title>checkSetVariable-&gt;interpret</title>
<path fill="none" stroke="#000000" d="M103,-215.8314C103,-208.131 103,-198.9743 103,-190.4166"/>
<polygon fill="#000000" stroke="#000000" points="106.5001,-190.4132 103,-180.4133 99.5001,-190.4133 106.5001,-190.4132"/>
</g>
<!-- interpret1 -->
<g id="node8" class="node">
<title>interpret1</title>
<ellipse fill="#ffffff" stroke="#ffffff" cx="103" cy="-90" rx="48.652" ry="18"/>
<text text-anchor="middle" x="103" y="-85.8" font-family="Times,serif" font-size="14.00" fill="#000000">interpret1</text>
</g>
<!-- interpret&#45;&gt;interpret1 -->
<g id="edge8" class="edge">
<title>interpret-&gt;interpret1</title>
<path fill="none" stroke="#000000" d="M103,-143.8314C103,-136.131 103,-126.9743 103,-118.4166"/>
<polygon fill="#000000" stroke="#000000" points="106.5001,-118.4132 103,-108.4133 99.5001,-118.4133 106.5001,-118.4132"/>
</g>
<!-- 0 -->
<g id="node10" class="node">
<title>0</title>
<ellipse fill="none" stroke="#000000" cx="31" cy="-18" rx="27" ry="18"/>
<text text-anchor="middle" x="31" y="-13.8" font-family="Times,serif" font-size="14.00" fill="#000000">0</text>
</g>
<!-- interpret1&#45;&gt;0 -->
<g id="edge10" class="edge">
<title>interpret1-&gt;0</title>
<path fill="none" stroke="#000000" d="M85.937,-72.937C76.1659,-63.1659 63.7928,-50.7928 53.2639,-40.2639"/>
<polygon fill="#000000" stroke="#000000" points="55.5327,-37.583 45.9868,-32.9868 50.583,-42.5327 55.5327,-37.583"/>
</g>
<!-- 1 -->
<g id="node11" class="node">
<title>1</title>
<ellipse fill="none" stroke="#000000" cx="103" cy="-18" rx="27" ry="18"/>
<text text-anchor="middle" x="103" y="-13.8" font-family="Times,serif" font-size="14.00" fill="#000000">1</text>
</g>
<!-- interpret1&#45;&gt;1 -->
<g id="edge11" class="edge">
<title>interpret1-&gt;1</title>
<path fill="none" stroke="#000000" d="M103,-71.8314C103,-64.131 103,-54.9743 103,-46.4166"/>
<polygon fill="#000000" stroke="#000000" points="106.5001,-46.4132 103,-36.4133 99.5001,-46.4133 106.5001,-46.4132"/>
</g>
<!-- &#45;1 -->
<g id="node12" class="node">
<title>-1</title>
<ellipse fill="none" stroke="#000000" cx="175" cy="-18" rx="27" ry="18"/>
<text text-anchor="middle" x="175" y="-13.8" font-family="Times,serif" font-size="14.00" fill="#000000">-1</text>
</g>
<!-- interpret1&#45;&gt;&#45;1 -->
<g id="edge12" class="edge">
<title>interpret1-&gt;-1</title>
<path fill="none" stroke="#000000" d="M120.063,-72.937C129.8341,-63.1659 142.2072,-50.7928 152.7361,-40.2639"/>
<polygon fill="#000000" stroke="#000000" points="155.417,-42.5327 160.0132,-32.9868 150.4673,-37.583 155.417,-42.5327"/>
</g>
<!-- start -->
<g id="node9" class="node">
<title>start</title>
<ellipse fill="none" stroke="#000000" cx="123" cy="-670.8" rx="27.8228" ry="18"/>
<text text-anchor="middle" x="123" y="-666.6" font-family="Times,serif" font-size="14.00" fill="#000000">start</text>
</g>
<!-- start&#45;&gt;unitProp -->
<g id="edge9" class="edge">
<title>start-&gt;unitProp</title>
<path fill="none" stroke="#000000" d="M123,-652.5995C123,-643.5132 123,-632.3176 123,-622.1549"/>
<polygon fill="#000000" stroke="#000000" points="126.5001,-622.0698 123,-612.0699 119.5001,-622.0699 126.5001,-622.0698"/>
</g>
</g>
</svg>